<svg width="32" height="32" viewBox="0 0 761 479" fill="none" xmlns="http://www.w3.org/2000/svg">
  <g fill="#0c8ce9">
    <path d="M369.003021,274.643433 C369.341980,275.078644 369.680939,275.513824 370.189728,276.429016 C370.462280,276.618561 370.734833,276.808105 371.103668,277.500702 C371.395538,277.572083 371.687439,277.643463 372.502960,277.833862 C372.673737,277.887451 372.844513,277.941040 373.240540,278.639496 C378.138611,282.103790 383.036713,285.568115 388.242706,289.660065 C392.983551,292.807007 398.131836,294.801544 403.613251,296.489014 C410.814972,298.705994 417.995392,300.239716 425.463593,299.875305 C431.624786,299.574615 437.781586,298.860962 443.894836,298.005432 C448.374634,297.378510 452.845215,296.457916 457.204437,295.251038 C463.540863,293.496796 469.859863,291.599365 476.016541,289.307037 C479.517853,288.003387 482.681244,285.792084 486.735596,283.940521 C494.482788,279.938995 502.230011,275.937500 510.685028,271.822906 C519.115417,266.509552 527.571533,261.236359 535.958740,255.855789 C538.160950,254.442993 540.149597,252.697250 542.906067,251.027603 C544.957214,249.360458 547.008362,247.693314 549.739746,245.910858 C553.078857,243.266068 556.417969,240.621262 560.294556,237.507935 C565.867188,232.511765 571.370239,227.434906 577.034241,222.544586 C581.673401,218.539108 586.696411,214.964767 591.202759,210.822418 C597.166870,205.340042 602.793274,199.490311 609.277771,193.693192 C611.642761,190.848282 613.920044,187.924576 616.390564,185.174484 C621.882751,179.060837 627.852661,173.330704 632.885071,166.865997 C636.150208,162.671585 638.104797,157.456970 640.747253,151.894836 C641.502686,149.712097 643.503723,146.856552 642.761597,145.482788 C641.071716,142.354340 638.487427,138.573105 635.442139,137.576401 C630.760376,136.044113 625.357666,136.147598 620.314087,136.448639 C615.349243,136.744965 610.464417,138.235779 605.519470,139.050415 C598.851379,140.148941 592.101624,140.828140 585.499390,142.220596 C581.559082,143.051651 577.834045,144.903625 573.223511,146.120895 C571.479248,146.827316 569.735046,147.533722 567.307678,148.115326 C566.861572,148.2" />
    <path d="M448.187378,249.168442 C450.741058,249.784409 453.264923,250.682846 455.854767,250.956299 C460.918396,251.490952 466.018860,251.676620 471.553375,252.454681 C470.770264,254.618073 469.913147,257.090790 468.241241,257.919281 C460.577148,261.717133 451.575714,263.145477 446.310913,271.034882 C445.732117,271.902191 444.398682,272.313812 443.357422,272.817078 C434.576843,277.061218 425.631226,280.673981 415.661713,281.000824 C408.143738,281.247314 400.340088,281.694916 393.845612,277.680847 C386.117767,272.904449 378.928284,267.154297 371.957672,261.288727 C366.596344,256.777313 361.950012,251.419022 356.953827,246.469543 C354.975006,244.509247 352.506042,242.912552 350.967743,240.665878 C347.718933,235.920944 345.084229,230.757629 341.881287,225.977936 C340.772858,224.323853 338.727966,223.297333 336.946594,221.677734 C330.848572,211.914581 324.914795,202.457840 318.867889,192.674713 C312.084747,180.976883 305.059265,169.713684 294.676483,161.435547 C289.541809,157.341675 282.882080,155.160553 276.645447,152.066925 C275.879700,151.836792 275.380890,151.653748 274.913605,151.102356 C274.963013,150.488205 274.980896,150.242386 275.373657,149.996735 C276.498199,149.994675 277.247894,149.992447 278.414276,149.993073 C280.219971,149.998489 281.608978,150.001053 283.081665,150.372528 C286.768738,151.494675 290.410858,152.102890 293.962219,153.050995 C296.419800,153.707077 299.558136,154.153900 300.999359,155.866455 C306.867493,162.839462 312.161804,170.292984 317.755127,177.501480 C319.052856,179.173996 320.735474,180.542374 322.171478,182.114212 C325.871704,186.164505 328.952301,190.499649 328.446350,196.413940 C328.424805,196.665512 328.791595,196.950287 329.170197,197.498871 C330.412506,197.432587 331.822723,197.357346 333.232941,197.282104 C332.705444,197.870773 332.177917,198.459442 331.650421,199.048111 C333.261688,199.816147 335.125549,200.296402 336.416412,201.429459 C337.837494,202.676834 339.731812,204.560028 339.676575,206.103836 C339.475159,211.7" />
    <path d="M282.997955,150.003632 C281.608978,150.001053 280.219971,149.998489 278.427704,149.604156 C279.633728,148.143463 281.121857,146.743835 282.885956,146.097427 C284.698395,145.433334 286.798096,145.198334 288.741089,145.310883 C295.008423,145.673874 301.098846,143.222656 307.668213,146.028961 C313.020752,148.315491 319.416565,148.346634 325.393372,148.934479 C331.815765,149.566132 338.310486,149.459564 344.734009,150.083160 C351.062225,150.697510 354.570740,155.528351 354.307098,161.880966 C354.213470,164.136932 355.099548,166.433563 355.538391,168.711639 C355.995697,168.729568 356.453003,168.747498 356.910339,168.765427 C358.581573,164.321762 360.224762,159.867233 361.934967,155.438599 C362.913391,152.905045 364.000885,150.413620 365.039276,147.903229 C366.944305,150.175720 369.185608,152.247940 370.683594,154.762894 C373.696106,159.820786 376.245483,165.152466 379.126068,170.292664 C379.712158,171.338547 380.915466,172.038544 381.440186,173.388641 C377.955048,175.252747 378.921143,176.869049 380.565277,178.825378 C381.899902,180.413467 383.472595,182.175385 383.885193,184.087723 C384.783600,188.251526 387.171448,189.490479 391.013824,188.995178 C392.044220,190.411758 393.074585,191.828354 393.793213,193.607849 C389.654541,195.651749 385.827545,197.332748 381.524902,199.222687 C386.363586,203.339828 391.740417,207.914871 397.357513,212.694382 C399.459778,211.517548 401.735657,210.243530 404.011536,208.969498 C404.174805,209.009521 404.338074,209.049530 404.754547,209.367401 C405.007782,209.645264 405.042206,210.109726 405.042206,210.109711 C405.659546,210.866089 406.276855,211.622452 406.563232,212.697250 C403.380951,214.521988 400.529663,216.028290 399.089020,216.789368 C394.143372,216.167206 390.306702,214.878967 386.767303,215.446136 C382.482880,216.132690 381.533386,214.563309 380.859955,210.995987 C380.596741,209.601715 378.576721,207.321854 377.698212,207.469986 C373.725494,208.139862 371.877594,206.038284 371.231995,202.902298 C370.424438,198.9" />
  </g>
</svg>
